# xmcd CD database file
#
# Track frame offsets:
#	150
#	33207
#	65057
#	100762
#	144837
#	177477
#	213007
#
# Disc length: 3255 seconds
#
# Revision: 0
# Processed by: cddbd v1.5.2PL0 Copyright (c) Steve Scherf et al.
# Submitted via: CDex 1.51
#
DISCID=590cb507
DTITLE=Grant Green - Green Street
DYEAR=1961
DGENRE=Jazz
TTITLE0=No. 1 Green Street
TTITLE1='Round about Midnight
TTITLE2=Grant's Dimensions
TTITLE3=Green With Envy
TTITLE4=Alone Together
TTITLE5=Green With Envy (alt tk)
TTITLE6=Alone Together (alt tk)
EXTD=YEAR: 1961
EXTT0=
EXTT1=
EXTT2=
EXTT3=
EXTT4=
EXTT5=
EXTT6=
PLAYORDER=
